<svg width="360" height="252" viewBox="0 0 360 252" fill="none" xmlns="http://www.w3.org/2000/svg">
<g clip-path="url(#clip0_206_130)">
<line x1="180.5" x2="180.5" y2="252" stroke="white" stroke-opacity="0.55"/>
<line x1="1" y1="127.5" x2="360" y2="127.5" stroke="white" stroke-opacity="0.55"/>
<path fill-rule="evenodd" clip-rule="evenodd" d="M4.29489 17.999L6.03922 18.1352L7.38756 8.8095L15.9504 19.3532L17.3639 18.2053L8.80103 7.66158L18.179 8.25343L18.4296 6.51991C13.9038 6.23427 10.3991 6.01307 6.06734 5.73968C5.36439 10.6017 5.86068 7.16912 4.29489 17.999Z" fill="#DC562C"/>
<path fill-rule="evenodd" clip-rule="evenodd" d="M15.9864 246.436L16.1249 244.692L6.8012 243.331L17.357 234.783L16.2111 233.368L5.65529 241.916L6.26037 232.539L4.52721 232.286C4.23518 236.811 4.00904 240.315 3.72953 244.647C8.59059 245.357 5.15868 244.855 15.9864 246.436Z" fill="#DC562C"/>
<path fill-rule="evenodd" clip-rule="evenodd" d="M355.806 234.036L354.057 234.05L353.513 243.457L344.077 233.686L342.768 234.951L352.203 244.722L342.809 244.936L342.708 246.685C347.242 246.582 350.752 246.501 355.091 246.402C355.375 241.498 355.175 244.96 355.806 234.036Z" fill="#DC562C"/>
<path fill-rule="evenodd" clip-rule="evenodd" d="M344.619 3.17095L344.45 4.91241L353.748 6.43643L343.045 14.7988L344.166 16.2337L354.869 7.8713L354.101 17.2364L355.829 17.5197C356.2 13.0001 356.487 9.50016 356.842 5.17436C351.994 4.37981 355.417 4.94076 344.619 3.17095Z" fill="#DC562C"/>
</g>
<rect x="0.5" y="0.5" width="359" height="251" stroke="white" stroke-opacity="0.55"/>
<defs>
<clipPath id="clip0_206_130">
<rect width="360" height="252" fill="white"/>
</clipPath>
</defs>
</svg>
