<svg width="153" height="116" viewBox="0 0 153 116" fill="none" xmlns="http://www.w3.org/2000/svg">
<path d="M40.5733 15.5745L76.706 6.46484V83.7499L40.5733 76.9912V15.5745Z" fill="currentColor"/>
<path d="M39.338 39.0835L40.882 80.5177L18.338 74.9344L39.338 39.0835Z" fill="currentColor"/>
<path d="M40.5733 76.9912L57.8674 80.5175L76.706 85.807V89.6271L40.8822 80.5175L40.5733 76.9912Z" fill="currentColor"/>
<path d="M76.7046 85.8069L102.029 73.4648V73.7586L76.7046 89.6271V85.8069Z" fill="currentColor"/>
<path d="M66.5139 0L126.426 5.28948L114.072 49.3684V21.7456L76.0872 4.40789L58.7933 9.69737L66.5139 0Z" fill="currentColor"/>
<path d="M85.9699 19.395L97.7047 23.2151L88.7489 25.566L97.7047 24.3906V38.7897L85.9699 38.2019V19.395Z" fill="currentColor"/>
<path d="M101.72 24.6841L109.131 27.3287L103.573 28.5043L109.131 28.2104V39.4772L101.72 39.0832V24.6841Z" fill="currentColor"/>
<path d="M85.9699 53.0055L97.7047 51.2261V65.2371L89.9851 64.9432L97.7047 66.7064L85.9699 71.8449V53.0055Z" fill="currentColor"/>
<path d="M101.72 50.5438L109.131 49.6621V60.8288L104.499 61.1227L108.823 62.0043L102.029 64.9428L101.72 50.5438Z" fill="currentColor"/>
<path d="M1.86709 110V96.32H7.64309C7.77609 96.32 7.95343 96.3263 8.17509 96.339C8.40309 96.3453 8.60576 96.3643 8.78309 96.396C9.60009 96.5227 10.2683 96.7918 10.7876 97.2035C11.3133 97.6152 11.6996 98.1345 11.9466 98.7615C12.1936 99.3822 12.3171 100.076 12.3171 100.842C12.3171 101.988 12.0321 102.97 11.4621 103.787C10.8921 104.598 9.99909 105.098 8.78309 105.288L7.64309 105.364H4.45109V110H1.86709ZM9.58109 110L6.88309 104.433L9.54309 103.92L12.5071 110H9.58109ZM4.45109 102.951H7.52909C7.66209 102.951 7.80776 102.945 7.96609 102.932C8.12443 102.919 8.27009 102.894 8.40309 102.856C8.75143 102.761 9.02059 102.603 9.21059 102.381C9.40059 102.153 9.53043 101.903 9.60009 101.63C9.67609 101.352 9.71409 101.089 9.71409 100.842C9.71409 100.595 9.67609 100.335 9.60009 100.063C9.53043 99.7843 9.40059 99.5342 9.21059 99.3125C9.02059 99.0845 8.75143 98.923 8.40309 98.828C8.27009 98.79 8.12443 98.7647 7.96609 98.752C7.80776 98.7393 7.66209 98.733 7.52909 98.733H4.45109V102.951ZM14.5956 110V96.32H23.5256V98.733H17.1796V101.659H22.3856V104.072H17.1796V107.587H23.5256V110H14.5956ZM25.4226 110V109.677L31.9206 98.733H25.9926V96.32H36.4426V96.643L29.9826 107.568H36.2526V110H25.4226ZM44.5877 110.285C43.2197 110.285 42.0385 109.987 41.0442 109.392C40.0562 108.797 39.293 107.964 38.7547 106.893C38.2227 105.823 37.9567 104.579 37.9567 103.16C37.9567 101.741 38.2227 100.497 38.7547 99.4265C39.293 98.3562 40.0562 97.5233 41.0442 96.928C42.0385 96.3327 43.2197 96.035 44.5877 96.035C45.9557 96.035 47.1337 96.3327 48.1217 96.928C49.116 97.5233 49.8792 98.3562 50.4112 99.4265C50.9495 100.497 51.2187 101.741 51.2187 103.16C51.2187 104.579 50.9495 105.823 50.4112 106.893C49.8792 107.964 49.116 108.797 48.1217 109.392C47.1337 109.987 45.9557 110.285 44.5877 110.285ZM44.5877 107.853C45.4554 107.866 46.1774 107.679 46.7537 107.292C47.33 106.906 47.7607 106.358 48.0457 105.649C48.337 104.94 48.4827 104.11 48.4827 103.16C48.4827 102.21 48.337 101.387 48.0457 100.69C47.7607 99.9933 47.33 99.4518 46.7537 99.0655C46.1774 98.6792 45.4554 98.4797 44.5877 98.467C43.72 98.4543 42.998 98.6412 42.4217 99.0275C41.8454 99.4138 41.4115 99.9617 41.1202 100.671C40.8352 101.38 40.6927 102.21 40.6927 103.16C40.6927 104.11 40.8352 104.933 41.1202 105.63C41.4115 106.327 41.8454 106.868 42.4217 107.254C42.998 107.641 43.72 107.84 44.5877 107.853ZM53.1151 110V96.32H55.7371L61.6841 105.44V96.32H64.3061V110H61.6841L55.7371 100.88V110H53.1151ZM66.9569 110V96.32H75.8869V98.733H69.5409V101.659H74.7469V104.072H69.5409V107.587H75.8869V110H66.9569ZM81.9677 110V96.32H87.4397C88.415 96.32 89.2035 96.5163 89.8052 96.909C90.4068 97.2953 90.847 97.783 91.1257 98.372C91.4043 98.961 91.5437 99.5563 91.5437 100.158C91.5437 100.924 91.3695 101.561 91.0212 102.067C90.6792 102.574 90.2073 102.913 89.6057 103.084V102.609C90.4607 102.786 91.1003 103.182 91.5247 103.796C91.9553 104.411 92.1707 105.098 92.1707 105.858C92.1707 106.675 92.0187 107.394 91.7147 108.014C91.417 108.635 90.961 109.123 90.3467 109.477C89.7323 109.826 88.9597 110 88.0287 110H81.9677ZM84.5897 107.568H87.7627C88.111 107.568 88.4213 107.495 88.6937 107.349C88.966 107.197 89.1782 106.988 89.3302 106.722C89.4885 106.45 89.5677 106.13 89.5677 105.763C89.5677 105.44 89.5012 105.152 89.3682 104.898C89.2352 104.645 89.0325 104.446 88.7602 104.3C88.4942 104.148 88.1617 104.072 87.7627 104.072H84.5897V107.568ZM84.5897 101.659H87.4017C87.693 101.659 87.9527 101.608 88.1807 101.507C88.4087 101.406 88.5892 101.25 88.7222 101.041C88.8552 100.826 88.9217 100.551 88.9217 100.215C88.9217 99.797 88.7918 99.4455 88.5322 99.1605C88.2725 98.8755 87.8957 98.733 87.4017 98.733H84.5897V101.659ZM94.2553 110V96.32H96.8393V107.587H102.729V110H94.2553ZM109.845 110.285C108.477 110.285 107.295 109.987 106.301 109.392C105.313 108.797 104.55 107.964 104.012 106.893C103.48 105.823 103.214 104.579 103.214 103.16C103.214 101.741 103.48 100.497 104.012 99.4265C104.55 98.3562 105.313 97.5233 106.301 96.928C107.295 96.3327 108.477 96.035 109.845 96.035C111.213 96.035 112.391 96.3327 113.379 96.928C114.373 97.5233 115.136 98.3562 115.668 99.4265C116.206 100.497 116.476 101.741 116.476 103.16C116.476 104.579 116.206 105.823 115.668 106.893C115.136 107.964 114.373 108.797 113.379 109.392C112.391 109.987 111.213 110.285 109.845 110.285ZM109.845 107.853C110.712 107.866 111.434 107.679 112.011 107.292C112.587 106.906 113.018 106.358 113.303 105.649C113.594 104.94 113.74 104.11 113.74 103.16C113.74 102.21 113.594 101.387 113.303 100.69C113.018 99.9933 112.587 99.4518 112.011 99.0655C111.434 98.6792 110.712 98.4797 109.845 98.467C108.977 98.4543 108.255 98.6412 107.679 99.0275C107.102 99.4138 106.668 99.9617 106.377 100.671C106.092 101.38 105.95 102.21 105.95 103.16C105.95 104.11 106.092 104.933 106.377 105.63C106.668 106.327 107.102 106.868 107.679 107.254C108.255 107.641 108.977 107.84 109.845 107.853ZM124.243 110.285C122.875 110.285 121.694 109.987 120.699 109.392C119.711 108.797 118.948 107.964 118.41 106.893C117.878 105.823 117.612 104.579 117.612 103.16C117.612 101.741 117.878 100.497 118.41 99.4265C118.948 98.3562 119.711 97.5233 120.699 96.928C121.694 96.3327 122.875 96.035 124.243 96.035C125.814 96.035 127.131 96.4245 128.195 97.2035C129.265 97.9825 130.019 99.037 130.456 100.367L127.853 101.089C127.6 100.259 127.172 99.6165 126.57 99.1605C125.969 98.6982 125.193 98.467 124.243 98.467C123.375 98.467 122.65 98.6602 122.067 99.0465C121.491 99.4328 121.057 99.9775 120.766 100.68C120.475 101.383 120.329 102.21 120.329 103.16C120.329 104.11 120.475 104.936 120.766 105.639C121.057 106.342 121.491 106.887 122.067 107.273C122.65 107.66 123.375 107.853 124.243 107.853C125.193 107.853 125.969 107.622 126.57 107.159C127.172 106.697 127.6 106.054 127.853 105.231L130.456 105.953C130.019 107.283 129.265 108.337 128.195 109.116C127.131 109.896 125.814 110.285 124.243 110.285ZM132.548 110V96.32H135.132V102.628L140.338 96.32H143.492L137.773 103.065L143.853 110H140.585L135.132 103.768V110H132.548Z" fill="currentColor"/>
</svg>
