<svg width="22" height="22" viewBox="0 0 22 22" fill="none" xmlns="http://www.w3.org/2000/svg">
<path d="M4.95312 9.64437C6.57312 12.8281 9.1775 15.4325 12.3669 17.0525L14.8419 14.5719C15.1512 14.2625 15.5956 14.1725 15.9838 14.2963C17.2437 14.7125 18.5994 14.9375 20 14.9375C20.6244 14.9375 21.125 15.4381 21.125 16.0625V20C21.125 20.6244 20.6244 21.125 20 21.125C9.43625 21.125 0.875 12.5638 0.875 2C0.875 1.37563 1.38125 0.875 2 0.875H5.9375C6.56187 0.875 7.0625 1.37563 7.0625 2C7.0625 3.40062 7.2875 4.75625 7.70375 6.01625C7.8275 6.40438 7.7375 6.84875 7.42812 7.15812L4.95312 9.64437Z" fill="currentColor"/>
</svg>
