<svg width="30" height="30" viewBox="0 0 30 30" fill="none" xmlns="http://www.w3.org/2000/svg">
<path fill-rule="evenodd" clip-rule="evenodd" d="M25.578 4.36008C22.7713 1.55021 19.039 0.00211754 15.0623 0.000488281C6.86865 0.000488281 0.199857 6.66874 0.196659 14.8649C0.195513 17.485 0.880042 20.0423 2.18097 22.2967L0.071991 29.9999L7.95246 27.9327C10.1237 29.117 12.5684 29.7412 15.0564 29.7421H15.0624C15.0619 29.7421 15.0629 29.7421 15.0624 29.7421C23.2552 29.7421 29.9246 23.0732 29.928 14.8768C29.9294 10.9047 28.3846 7.16982 25.578 4.36008ZM15.0624 27.2315H15.0574C12.8404 27.2307 10.6658 26.635 8.76872 25.5093L8.3176 25.2415L3.64121 26.4682L4.88946 21.9088L4.59565 21.4413C3.35887 19.4741 2.70565 17.2004 2.70662 14.8658C2.70928 8.05342 8.25213 2.51117 15.0674 2.51117C18.3675 2.5122 21.4698 3.79913 23.8026 6.13458C26.1353 8.47003 27.4193 11.5744 27.418 14.8758C27.4152 21.6887 21.8725 27.2315 15.0624 27.2315Z" fill="currentColor"/>
<path fill-rule="evenodd" clip-rule="evenodd" d="M21.8397 17.9777C21.4683 17.7918 19.6421 16.8933 19.3016 16.7693C18.9612 16.6453 18.7135 16.5833 18.4659 16.9552C18.2183 17.327 17.5065 18.1637 17.2898 18.4116C17.0732 18.6594 16.8564 18.6906 16.4851 18.5045C16.1136 18.3186 14.9168 17.9264 13.4981 16.6609C12.3938 15.676 11.6484 14.4597 11.4316 14.0877C11.215 13.716 11.4086 13.515 11.5946 13.3297C11.7617 13.1632 11.966 12.8959 12.1518 12.679C12.3375 12.4622 12.3994 12.3071 12.5232 12.0594C12.647 11.8114 12.5852 11.5945 12.4922 11.4086C12.3994 11.2227 11.6565 9.39446 11.347 8.65062C11.0455 7.92644 10.7393 8.02456 10.5112 8.01303C10.2949 8.00223 10.047 8 9.79937 8C9.55179 8 9.1493 8.09299 8.80891 8.46476C8.46845 8.83665 7.50882 9.73534 7.50882 11.5634C7.50882 13.3918 8.8398 15.158 9.02554 15.4058C9.21121 15.6538 11.6447 19.4055 15.3708 21.0144C16.257 21.3971 16.9489 21.6257 17.4883 21.7968C18.3781 22.0796 19.1878 22.0396 19.8278 21.944C20.5415 21.8373 22.0254 21.0455 22.3349 20.1779C22.6445 19.3102 22.6445 18.5664 22.5516 18.4116C22.4588 18.2567 22.2111 18.1637 21.8397 17.9777Z" fill="currentColor"/>
</svg>
